<svg xmlns="http://www.w3.org/2000/svg"  viewBox="0 0 24 24" width="64px" height="64px"><path d="M 9.5 2 A 1.0001 1.0001 0 0 0 8.5136719 2.8359375 L 8.1523438 5 L 8 5 L 3.6582031 5 A 1.0001 1.0001 0 0 0 3.3359375 5 L 2 5 A 1.0001 1.0001 0 1 0 2 7 L 2.5605469 7 L 3.3320312 19.175781 C 3.4258551 20.751425 4.747814 22 6.3261719 22 L 17.673828 22 C 19.252186 22 20.574145 20.751425 20.667969 19.175781 L 21.439453 7 L 22 7 A 1.0001 1.0001 0 1 0 22 5 L 20.667969 5 A 1.0001 1.0001 0 0 0 20.339844 5 L 16 5 L 15.847656 5 L 15.486328 2.8359375 A 1.0001 1.0001 0 0 0 14.5 2 L 9.5 2 z M 10.347656 4 L 13.652344 4 L 13.818359 5 L 10.181641 5 L 10.347656 4 z M 4.5644531 7 L 8 7 L 9 7 L 14.994141 7 L 16 7 L 19.435547 7 L 18.671875 19.054688 A 1.0001 1.0001 0 0 0 18.671875 19.056641 C 18.639699 19.59695 18.21347 20 17.673828 20 L 6.3261719 20 C 5.7865298 20 5.3603012 19.596997 5.328125 19.056641 A 1.0001 1.0001 0 0 0 5.328125 19.054688 L 4.5644531 7 z M 8.0117188 8.9863281 A 1.0001 1.0001 0 0 0 7.0019531 10.070312 L 7.5019531 17.070312 A 1.0005206 1.0005206 0 1 0 9.4980469 16.929688 L 8.9980469 9.9296875 A 1.0001 1.0001 0 0 0 8.0117188 8.9863281 z M 11.984375 8.9863281 A 1.0001 1.0001 0 0 0 11 10 L 11 17 A 1.0001 1.0001 0 1 0 13 17 L 13 10 A 1.0001 1.0001 0 0 0 11.984375 8.9863281 z M 15.957031 8.9863281 A 1.0001 1.0001 0 0 0 15.001953 9.9296875 L 14.501953 16.929688 A 1.0005207 1.0005207 0 1 0 16.498047 17.070312 L 16.998047 10.070312 A 1.0001 1.0001 0 0 0 15.957031 8.9863281 z"/></svg>